<svg xmlns="http://www.w3.org/2000/svg" width="10.933" height="8.285" viewBox="0 0 10.933 8.285"><g transform="translate(4.655 3.31)"><g transform="translate(0 0)"><ellipse fill="#fff" cx="0.833" cy="0.833" rx="0.833" ry="0.833"/></g></g><g transform="translate(3.054 1.708)"><path fill="#fff" d="M145.448,142a2.434,2.434,0,1,0,2.434,2.434A2.437,2.437,0,0,0,145.448,142Zm0,4.014a1.58,1.58,0,1,1,1.58-1.58A1.582,1.582,0,0,1,145.448,146.016Z" transform="translate(-143.014 -142.002)"/></g><g transform="translate(0 0)"><g transform="translate(0 0)"><path fill="#fff" d="M10.656,65.213a8.255,8.255,0,0,0-1.908-2.021A5.433,5.433,0,0,0,5.476,62,5.461,5.461,0,0,0,2.2,63.189a8.314,8.314,0,0,0-1.92,2.018,1.706,1.706,0,0,0,0,1.876A8.314,8.314,0,0,0,2.2,69.1a5.461,5.461,0,0,0,3.275,1.186,5.923,5.923,0,0,0,3.949-1.759.427.427,0,0,0-.584-.623,5.093,5.093,0,0,1-3.365,1.527c-2.074,0-3.793-1.772-4.481-2.82a.852.852,0,0,1,0-.938c.689-1.047,2.408-2.82,4.481-2.82s3.782,1.774,4.465,2.822a.854.854,0,0,1,0,.932.427.427,0,1,0,.716.466A1.709,1.709,0,0,0,10.656,65.213Z" transform="translate(0 -62.003)"/></g></g></svg>